<svg xmlns="http://www.w3.org/2000/svg" width="463" height="273" viewBox="0 0 463 273" version="1.1"><path d="M 172 34.500 C 173.375 35.286, 174.950 35.929, 175.500 35.929 C 176.050 35.929, 175.375 35.286, 174 34.500 C 172.625 33.714, 171.050 33.071, 170.500 33.071 C 169.950 33.071, 170.625 33.714, 172 34.500 M 199.236 100.936 C 193.452 102.384, 188.416 106.525, 185.623 112.129 C 182.625 118.145, 182.330 122.461, 184.553 127.782 C 189.286 139.112, 202.650 144.253, 213.595 138.954 C 218.435 136.611, 219.751 134.322, 217.533 132.105 C 216.194 130.765, 215.569 130.744, 212.746 131.939 C 210.961 132.695, 207.250 133.502, 204.500 133.731 C 200.467 134.068, 198.830 133.696, 196.036 131.808 C 189.086 127.114, 188.292 117.508, 194.353 111.447 C 198.861 106.939, 204.214 106.176, 210.963 109.080 C 215.786 111.154, 216.238 111.191, 217.797 109.632 C 222.353 105.076, 208.542 98.606, 199.236 100.936 M 287.709 102.624 C 287.319 103.014, 287 105.623, 287 108.422 L 287 113.510 280.068 113.505 C 273.748 113.500, 272.864 113.761, 270.046 116.458 C 260.995 125.122, 265.631 139.586, 277.835 140.758 C 280.546 141.019, 283.575 140.778, 284.566 140.223 C 285.790 139.538, 286.910 139.551, 288.052 140.265 C 288.978 140.843, 290.480 141.030, 291.390 140.681 C 292.862 140.116, 293.014 137.973, 292.772 121.273 C 292.511 103.239, 292.420 102.488, 290.459 102.208 C 289.336 102.047, 288.099 102.235, 287.709 102.624 M 444.238 103.162 C 443.557 103.843, 443 106.283, 443 108.583 C 443 111.926, 442.598 112.872, 441 113.290 C 439.769 113.612, 439 114.654, 439 116 C 439 117.346, 439.769 118.388, 441 118.710 C 442.796 119.180, 443 120.074, 443 127.482 C 443 134.367, 443.350 136.175, 445.116 138.420 C 447.794 141.824, 452.327 141.722, 452.820 138.246 C 453.012 136.893, 452.512 135.750, 451.570 135.389 C 450.327 134.911, 450 133.143, 450 126.893 C 450 119.815, 450.196 119, 451.893 119 C 452.934 119, 454.067 118.268, 454.410 117.373 C 455.122 115.519, 453.405 113, 451.430 113 C 450.536 113, 450.006 111.290, 449.802 107.750 C 449.550 103.374, 449.165 102.452, 447.488 102.212 C 446.382 102.053, 444.919 102.481, 444.238 103.162 M 93 121.471 L 93 135 106.529 135 L 120.058 135 119.779 121.750 L 119.500 108.500 106.250 108.221 L 93 107.942 93 121.471 M 127 121.500 L 127 135 140.500 135 L 154 135 154 121.500 L 154 108 140.500 108 L 127 108 127 121.500 M 235.299 114.960 C 223.424 122.200, 228.745 140.984, 242.673 140.996 C 249.458 141.002, 256 134.132, 256 127 C 256 122.962, 253.832 118.878, 249.959 115.619 C 246.105 112.376, 239.987 112.101, 235.299 114.960 M 304.709 113.624 C 304.319 114.014, 304 118.351, 304 123.262 C 304 129.829, 304.444 132.944, 305.680 135.035 C 307.976 138.922, 312.809 141.358, 317.206 140.844 C 319.770 140.545, 320.638 140.779, 320.294 141.676 C 319.636 143.390, 316.269 144.465, 311.500 144.484 C 308.120 144.498, 307.451 144.848, 307.181 146.748 C 306.586 150.933, 314.919 152.401, 320.938 149.173 C 326.993 145.925, 328.075 142.413, 327.769 127 L 327.500 113.500 325 113.500 C 322.549 113.500, 322.490 113.682, 321.982 122.844 C 321.555 130.536, 321.123 132.437, 319.540 133.594 C 318.483 134.367, 316.890 135, 316 135 C 315.110 135, 313.517 134.367, 312.460 133.594 C 310.877 132.437, 310.445 130.536, 310.018 122.844 C 309.550 114.401, 309.303 113.472, 307.459 113.208 C 306.336 113.047, 305.099 113.235, 304.709 113.624 M 342.436 114.305 C 342.161 115.023, 342.062 121.211, 342.218 128.055 L 342.500 140.500 345 140.500 C 347.399 140.500, 347.520 140.198, 348.008 133 C 348.661 123.362, 350.275 120.864, 357.320 118.595 C 358.520 118.209, 359.031 117.240, 358.820 115.754 C 358.444 113.103, 354.349 112.207, 350.942 114.031 C 349.382 114.866, 348.483 114.883, 347.693 114.093 C 346.191 112.591, 343.045 112.718, 342.436 114.305 M 373.304 114.956 C 368.666 117.784, 366.615 121.476, 366.615 127 C 366.615 134.976, 372.515 140.989, 380.349 140.996 C 384.554 141, 390.561 138.586, 391.330 136.582 C 392.252 134.181, 390.367 132.688, 387.356 133.434 C 379.393 135.409, 378.210 135.303, 375.307 132.353 L 372.500 129.500 383 129 L 393.500 128.500 393.810 125.816 C 394.890 116.466, 382.013 109.646, 373.304 114.956 M 405.366 114.488 C 405.129 115.106, 405.062 121.211, 405.218 128.055 L 405.500 140.500 408 140.500 C 410.451 140.500, 410.510 140.318, 411.018 131.156 C 411.445 123.464, 411.877 121.563, 413.460 120.406 C 415.916 118.610, 417.036 118.637, 419.777 120.557 C 421.739 121.930, 422 122.996, 422 129.622 C 422 137.855, 423.086 141, 425.928 141 C 428.457 141, 429 139.110, 429 130.319 C 429 116.930, 425.341 113.003, 413.075 113.231 C 408.734 113.311, 405.623 113.819, 405.366 114.488 M 239.017 120.286 C 233.743 122.954, 233.910 131.231, 239.289 133.810 C 244.353 136.237, 249.009 133.053, 248.985 127.179 C 248.967 122.938, 248.343 121.743, 245.316 120.150 C 242.596 118.718, 242.093 118.729, 239.017 120.286 M 276.315 120.007 C 269.828 122.621, 271.048 132.866, 278.043 134.514 C 284.904 136.130, 289.085 125.572, 283.365 121.073 C 280.495 118.815, 279.608 118.680, 276.315 120.007 M 374.750 121.250 L 372.500 123.500 379.870 123.796 C 383.924 123.959, 387.524 123.808, 387.870 123.460 C 388.217 123.112, 387.438 121.967, 386.139 120.914 C 382.888 118.278, 377.565 118.435, 374.750 121.250 M 93 155.529 L 93 169.058 106.250 168.779 L 119.500 168.500 119.779 155.250 L 120.058 142 106.529 142 L 93 142 93 155.529 M 127 155.500 L 127 169 140.500 169 L 154 169 154 155.500 L 154 142 140.500 142 L 127 142 127 155.500" stroke="none" fill="#fff" fill-rule="evenodd"/><path d="M 68.362 42.862 L 13.500 74.528 13.500 138.484 L 13.500 202.439 68.451 234.180 L 123.401 265.921 136.451 259.011 C 143.628 255.210, 165.475 243.570, 185 233.144 L 220.500 214.187 220.776 199.093 C 220.928 190.792, 220.863 184, 220.632 184 C 220.401 184, 200.252 194.635, 175.856 207.634 C 151.460 220.632, 129.630 232.176, 127.345 233.287 L 123.190 235.306 81.095 211.055 L 39 186.803 39 138.500 L 39 90.197 80.829 66.098 C 103.836 52.844, 123.110 42, 123.662 42 C 124.214 42, 144.429 51.497, 168.583 63.103 C 192.737 74.710, 214.412 85.044, 216.750 86.068 L 221 87.929 221 72.977 L 221 58.025 214 54.500 L 207 50.975 207 30.987 L 207 11 196.526 11 L 186.052 11 185.776 25.892 L 185.500 40.785 157.500 27.325 C 142.100 19.922, 128.088 13.265, 126.362 12.531 C 123.249 11.206, 122.792 11.446, 68.362 42.862 M 335 158.500 C 335 163.500, 335.412 167, 336 167 C 336.588 167, 337 163.500, 337 158.500 C 337 153.500, 336.588 150, 336 150 C 335.412 150, 335 153.500, 335 158.500 M 314.510 153.750 C 314.101 154.988, 313.314 156, 312.761 156 C 312.109 156, 312.124 156.444, 312.803 157.263 C 313.379 157.957, 313.997 160.320, 314.175 162.513 C 314.440 165.766, 314.914 166.559, 316.750 166.820 C 317.988 166.995, 319 166.658, 319 166.070 C 319 165.481, 318.325 165, 317.500 165 C 316.452 165, 316 163.944, 316 161.500 C 316 159.056, 316.452 158, 317.500 158 C 318.325 158, 319 157.550, 319 157 C 319 156.450, 318.356 156, 317.570 156 C 316.783 156, 315.940 154.988, 315.697 153.750 L 315.254 151.500 314.510 153.750 M 223.515 158.132 C 223.913 159.434, 224.842 161.974, 225.579 163.775 C 227.161 167.642, 226.522 170, 223.893 170 C 222.852 170, 222 170.480, 222 171.066 C 222 171.653, 223.203 171.990, 224.673 171.816 C 226.649 171.582, 227.580 170.718, 228.246 168.500 C 228.741 166.850, 229.554 164.600, 230.052 163.500 C 232.626 157.820, 232.971 156, 231.475 156 C 230.664 156, 230 156.421, 230 156.935 C 230 157.449, 229.498 159.137, 228.884 160.685 L 227.768 163.500 226.565 160.060 C 225.170 156.072, 222.336 154.280, 223.515 158.132 M 236.571 157.571 C 234.712 159.431, 234.501 164.101, 236.200 165.800 C 236.860 166.460, 238.570 167, 240 167 C 243.439 167, 245 165.283, 245 161.500 C 245 159.795, 244.460 157.860, 243.800 157.200 C 242.117 155.517, 238.436 155.706, 236.571 157.571 M 249.198 161.250 L 249.500 166.500 253.750 166.535 L 258 166.571 258 161.285 C 258 154.991, 256.248 154.164, 255.807 160.250 C 255.552 163.783, 255.120 164.554, 253.250 164.820 C 251.198 165.111, 251 164.736, 251 160.570 C 251 158.039, 250.531 156, 249.948 156 C 249.307 156, 249.014 158.051, 249.198 161.250 M 263.002 161.750 C 263.001 164.637, 263.450 167, 264 167 C 264.550 167, 265 165.158, 265 162.906 C 265 159.654, 265.411 158.705, 267 158.290 C 270.081 157.484, 269.367 156.055, 266.002 156.290 C 263.079 156.495, 263.004 156.631, 263.002 161.750 M 279.002 161.750 C 279.001 164.637, 279.450 167, 280 167 C 280.550 167, 281 165.158, 281 162.906 C 281 159.654, 281.411 158.705, 283 158.290 C 286.081 157.484, 285.367 156.055, 282.002 156.290 C 279.079 156.495, 279.004 156.631, 279.002 161.750 M 288.200 157.200 C 287.540 157.860, 287 159.795, 287 161.500 C 287 165.325, 288.565 167, 292.141 167 C 296.107 167, 296.635 165.187, 292.777 164.815 C 290.625 164.607, 289.404 163.905, 289.185 162.750 C 288.919 161.348, 289.564 161, 292.427 161 C 294.692 161, 296 160.524, 296 159.700 C 296 157.753, 293.869 156, 291.500 156 C 290.345 156, 288.860 156.540, 288.200 157.200 M 300 161.715 C 300 168.009, 301.752 168.836, 302.193 162.750 C 302.448 159.217, 302.880 158.446, 304.750 158.180 C 306.802 157.889, 307 158.264, 307 162.430 C 307 164.961, 307.469 167, 308.052 167 C 308.693 167, 308.986 164.949, 308.802 161.750 L 308.500 156.500 304.250 156.465 L 300 156.429 300 161.715 M 324 157 C 322.831 157.755, 323.107 157.973, 325.250 157.985 C 328.959 158.005, 328.746 159.601, 324.932 160.364 C 322.288 160.892, 321.909 161.358, 322.182 163.739 C 322.472 166.253, 322.879 166.508, 326.750 166.592 L 331 166.685 331 162.542 C 331 156.725, 328.046 154.385, 324 157 M 349 161.702 C 349 168.005, 350.752 168.843, 351.193 162.750 C 351.448 159.217, 351.880 158.446, 353.750 158.180 C 355.802 157.889, 356 158.264, 356 162.430 C 356 168.194, 357.780 168.453, 358.193 162.750 C 358.448 159.217, 358.880 158.446, 360.750 158.180 C 362.802 157.889, 363 158.264, 363 162.430 C 363 164.961, 363.469 167, 364.052 167 C 364.693 167, 364.986 164.949, 364.802 161.750 L 364.500 156.500 356.750 156.452 L 349 156.404 349 161.702 M 369.535 156.944 C 369.131 157.598, 370.047 158, 371.941 158 C 373.623 158, 375 158.450, 375 159 C 375 159.550, 373.930 160, 372.622 160 C 369.787 160, 367.701 162.207, 368.180 164.702 C 368.443 166.070, 369.550 166.535, 372.811 166.645 L 377.097 166.790 376.799 161.645 C 376.510 156.677, 376.391 156.489, 373.344 156.194 C 371.608 156.025, 369.894 156.363, 369.535 156.944 M 381 161.664 C 381 165.646, 381.366 167, 382.443 167 C 383.425 167, 383.983 165.644, 384.193 162.750 C 384.448 159.217, 384.880 158.446, 386.750 158.180 C 388.802 157.889, 389 158.264, 389 162.430 C 389 164.961, 389.469 167, 390.052 167 C 390.693 167, 390.986 164.949, 390.802 161.750 L 390.500 156.500 385.750 156.414 L 381 156.328 381 161.664 M 395.535 156.944 C 395.131 157.598, 396.047 158, 397.941 158 C 401.894 158, 401.895 159.644, 397.942 160.513 C 395.353 161.081, 394.932 161.591, 395.192 163.842 C 395.464 166.192, 395.940 166.504, 399.295 166.531 L 403.089 166.563 402.795 161.531 C 402.511 156.690, 402.381 156.488, 399.344 156.194 C 397.608 156.025, 395.894 156.363, 395.535 156.944 M 408.063 157.424 C 407.324 158.315, 407.133 160.192, 407.554 162.435 C 407.993 164.778, 407.784 166.556, 406.949 167.561 C 405.899 168.826, 405.963 169.391, 407.305 170.734 C 408.619 172.048, 409.680 172.185, 412.720 171.434 C 417.702 170.203, 418.002 167.016, 413.250 165.785 C 409.740 164.875, 408.816 163, 411.878 163 C 414.014 163, 415.445 161.511, 416.445 158.250 C 417.079 156.180, 416.819 156, 413.190 156 C 410.996 156, 408.720 156.632, 408.063 157.424 M 420.655 157.829 C 417.204 161.642, 419.860 167.394, 424.799 166.804 C 428.554 166.356, 428.538 164.479, 424.778 164.490 C 422.498 164.497, 421.448 163.986, 421.202 162.750 C 420.916 161.313, 421.581 161, 424.927 161 C 429.121 161, 430.188 159.588, 427.800 157.200 C 426.033 155.433, 422.546 155.740, 420.655 157.829 M 432 161.667 C 432 164.600, 432.450 167, 433 167 C 433.550 167, 434 165.230, 434 163.067 C 434 160.013, 434.447 158.993, 436 158.500 C 438.980 157.554, 438.417 156.333, 435 156.333 C 432.042 156.333, 432 156.407, 432 161.667 M 237.411 159.371 C 236.299 162.268, 237.432 164.500, 240.014 164.500 C 242.110 164.500, 242.500 164.029, 242.500 161.500 C 242.500 159.148, 242.013 158.431, 240.246 158.180 C 238.923 157.992, 237.751 158.485, 237.411 159.371 M 289 159 C 289 159.550, 290.152 160, 291.559 160 C 293.010 160, 293.851 159.567, 293.500 159 C 293.160 158.450, 292.009 158, 290.941 158 C 289.873 158, 289 158.450, 289 159 M 409.190 159.750 C 409.376 160.713, 410.415 161.500, 411.500 161.500 C 412.585 161.500, 413.624 160.713, 413.810 159.750 C 414.062 158.439, 413.482 158, 411.500 158 C 409.518 158, 408.938 158.439, 409.190 159.750 M 422 159 C 422 159.550, 423.152 160, 424.559 160 C 426.010 160, 426.851 159.567, 426.500 159 C 426.160 158.450, 425.009 158, 423.941 158 C 422.873 158, 422 158.450, 422 159 M 324.345 162.543 C 324.019 163.392, 324 164.333, 324.301 164.634 C 325.296 165.629, 329 163.894, 329 162.433 C 329 160.505, 325.091 160.598, 324.345 162.543 M 371.200 162.200 C 369.338 164.062, 369.778 165.171, 372.240 164.820 C 373.472 164.644, 374.630 163.713, 374.813 162.750 C 375.195 160.744, 372.991 160.409, 371.200 162.200 M 397.345 162.543 C 397.019 163.392, 397.014 164.347, 397.333 164.667 C 398.342 165.676, 401 164.128, 401 162.531 C 401 160.535, 398.112 160.545, 397.345 162.543 M 409 168.500 C 409 169.664, 409.727 170.042, 411.531 169.816 C 412.923 169.642, 414.062 169.050, 414.062 168.500 C 414.062 167.950, 412.923 167.358, 411.531 167.184 C 409.727 166.958, 409 167.336, 409 168.500" stroke="none" fill="#aa8453" fill-rule="evenodd"/></svg>
